<svg width="21" height="21" viewBox="0 0 21 21" fill="none" xmlns="http://www.w3.org/2000/svg">
  <path d="M20.5801 19.29L16.8375 15.61C18.2903 13.8144 18.9938 11.5353 18.8035 9.24133C18.6131 6.94733 17.5433 4.81281 15.8141 3.27667C14.0849 1.74053 11.8277 0.919537 9.50656 0.982497C7.18545 1.04546 4.97689 1.98759 3.335 3.61517C1.69311 5.24275 0.742696 7.43207 0.679182 9.73295C0.615668 12.0338 1.44388 14.2714 2.99352 15.9855C4.54317 17.6997 6.69645 18.7601 9.01062 18.9488C11.3248 19.1375 13.6239 18.4401 15.4353 17L19.1477 20.68C19.2414 20.7738 19.353 20.8482 19.4759 20.8989C19.5989 20.9497 19.7307 20.9758 19.8639 20.9758C19.9971 20.9758 20.1289 20.9497 20.2519 20.8989C20.3748 20.8482 20.4864 20.7738 20.5801 20.68C20.762 20.4936 20.8636 20.2444 20.8636 19.985C20.8636 19.7257 20.762 19.4765 20.5801 19.29ZM9.77599 17C8.37935 17 7.01407 16.5895 5.85281 15.8203C4.69154 15.0511 3.78645 13.9579 3.25198 12.6788C2.7175 11.3997 2.57766 9.99226 2.85013 8.63439C3.1226 7.27653 3.79515 6.02925 4.78272 5.05028C5.7703 4.07131 7.02854 3.40463 8.39835 3.13453C9.76815 2.86443 11.188 3.00306 12.4783 3.53287C13.7686 4.06268 14.8715 4.95989 15.6474 6.11103C16.4234 7.26218 16.8375 8.61556 16.8375 10C16.8375 11.8565 16.0935 13.637 14.7692 14.9498C13.445 16.2625 11.6488 17 9.77599 17Z" fill="#D9000D"></path>
</svg> 
