<svg xmlns="http://www.w3.org/2000/svg" width="15" height="14" viewBox="0 0 15 14" fill="none">
      <path d="M6.94737 10.5H8.05263V6.26316H6.94737V10.5ZM7.5 5.01053C7.67193 5.01053 7.81316 4.95207 7.92368 4.83516C8.03421 4.71874 8.08947 4.57456 8.08947 4.40263C8.08947 4.24298 8.03421 4.1047 7.92368 3.98779C7.81316 3.87137 7.67193 3.81316 7.5 3.81316C7.32807 3.81316 7.18684 3.87137 7.07632 3.98779C6.96579 4.1047 6.91053 4.24298 6.91053 4.40263C6.91053 4.57456 6.96579 4.71874 7.07632 4.83516C7.18684 4.95207 7.32807 5.01053 7.5 5.01053ZM7.5 14C6.52982 14 5.61811 13.8158 4.76484 13.4474C3.91109 13.0789 3.17105 12.5816 2.54474 11.9553C1.91842 11.3289 1.42105 10.5889 1.05263 9.73516C0.684211 8.8819 0.5 7.97018 0.5 7C0.5 6.02982 0.684211 5.11786 1.05263 4.2641C1.42105 3.41084 1.91842 2.67105 2.54474 2.04474C3.17105 1.41842 3.91109 0.921053 4.76484 0.552632C5.61811 0.184211 6.52982 0 7.5 0C8.47018 0 9.38214 0.184211 10.2359 0.552632C11.0892 0.921053 11.8289 1.41842 12.4553 2.04474C13.0816 2.67105 13.5789 3.41084 13.9474 4.2641C14.3158 5.11786 14.5 6.02982 14.5 7C14.5 7.97018 14.3158 8.8819 13.9474 9.73516C13.5789 10.5889 13.0816 11.3289 12.4553 11.9553C11.8289 12.5816 11.0892 13.0789 10.2359 13.4474C9.38214 13.8158 8.47018 14 7.5 14ZM7.5 12.8947C9.14561 12.8947 10.5395 12.3237 11.6816 11.1816C12.8237 10.0395 13.3947 8.64561 13.3947 7C13.3947 5.35439 12.8237 3.96053 11.6816 2.81842C10.5395 1.67632 9.14561 1.10526 7.5 1.10526C5.85439 1.10526 4.46053 1.67632 3.31842 2.81842C2.17632 3.96053 1.60526 5.35439 1.60526 7C1.60526 8.64561 2.17632 10.0395 3.31842 11.1816C4.46053 12.3237 5.85439 12.8947 7.5 12.8947Z" fill="#11418F"/>
      </svg>